<svg xmlns="http://www.w3.org/2000/svg" width="44.718" height="51.106" viewBox="0 0 44.718 51.106">
  <path id="Icon_awesome-user-tie" data-name="Icon awesome-user-tie" d="M22.359,25.553A12.777,12.777,0,1,0,9.582,12.777,12.776,12.776,0,0,0,22.359,25.553Zm9.562,3.254L27.15,47.912,23.956,34.337l3.194-5.59H17.568l3.194,5.59L17.568,47.912,12.8,28.807A13.392,13.392,0,0,0,0,42.163v4.152a4.792,4.792,0,0,0,4.791,4.791H39.927a4.792,4.792,0,0,0,4.791-4.791V42.163a13.392,13.392,0,0,0-12.8-13.356Z"/>
</svg>
