<svg xmlns="http://www.w3.org/2000/svg" width="45.858" height="52.409" viewBox="0 0 45.858 52.409">
  <path id="Icon_awesome-trash-alt" data-name="Icon awesome-trash-alt" d="M3.276,47.5a4.913,4.913,0,0,0,4.913,4.913h29.48A4.913,4.913,0,0,0,42.583,47.5V13.1H3.276Zm27.843-26.2a1.638,1.638,0,1,1,3.276,0V44.22a1.638,1.638,0,1,1-3.276,0Zm-9.827,0a1.638,1.638,0,1,1,3.276,0V44.22a1.638,1.638,0,0,1-3.276,0Zm-9.827,0a1.638,1.638,0,1,1,3.276,0V44.22a1.638,1.638,0,0,1-3.276,0ZM44.22,3.276H31.937l-.962-1.914A2.457,2.457,0,0,0,28.774,0h-11.7a2.428,2.428,0,0,0-2.191,1.361l-.962,1.914H1.638A1.638,1.638,0,0,0,0,4.913V8.189A1.638,1.638,0,0,0,1.638,9.827H44.22a1.638,1.638,0,0,0,1.638-1.638V4.913A1.638,1.638,0,0,0,44.22,3.276Z"/>
</svg>
