<svg xmlns="http://www.w3.org/2000/svg" width="57.584" height="46.07" viewBox="0 0 57.584 46.07">
  <path id="Icon_awesome-user-edit" data-name="Icon awesome-user-edit" d="M20.155,23.034A11.517,11.517,0,1,0,8.638,11.517,11.516,11.516,0,0,0,20.155,23.034Zm8.062,2.879h-1.5a15.663,15.663,0,0,1-13.119,0h-1.5A12.1,12.1,0,0,0,0,38.007V41.75a4.32,4.32,0,0,0,4.319,4.319H29.054a4.321,4.321,0,0,1-.234-1.917l.612-5.48.108-1,.711-.711,6.955-6.955a11.97,11.97,0,0,0-8.989-4.094Zm4.076,13.074-.612,5.489a1.432,1.432,0,0,0,1.584,1.584l5.48-.612L51.153,33.04,44.7,26.589l-12.408,12.4ZM56.956,24.2l-3.41-3.41a2.156,2.156,0,0,0-3.041,0l-3.4,3.4-.369.369,6.46,6.451,3.761-3.761a2.167,2.167,0,0,0,0-3.05Z"/>
</svg>
