<svg xmlns="http://www.w3.org/2000/svg" width="57.587" height="46.07" viewBox="0 0 57.587 46.07">
  <path id="Icon_awesome-user-plus" data-name="Icon awesome-user-plus" d="M56.148,18.716H50.389V12.957a1.444,1.444,0,0,0-1.44-1.44H46.07a1.444,1.444,0,0,0-1.44,1.44v5.759H38.871a1.444,1.444,0,0,0-1.44,1.44v2.879a1.444,1.444,0,0,0,1.44,1.44H44.63v5.759a1.444,1.444,0,0,0,1.44,1.44h2.879a1.444,1.444,0,0,0,1.44-1.44V24.475h5.759a1.444,1.444,0,0,0,1.44-1.44V20.156A1.444,1.444,0,0,0,56.148,18.716ZM20.156,23.035A11.517,11.517,0,1,0,8.638,11.517,11.517,11.517,0,0,0,20.156,23.035Zm8.062,2.879h-1.5a15.663,15.663,0,0,1-13.119,0h-1.5A12.1,12.1,0,0,0,0,38.008v3.743A4.32,4.32,0,0,0,4.319,46.07H35.992a4.32,4.32,0,0,0,4.319-4.319V38.008A12.1,12.1,0,0,0,28.218,25.914Z"/>
</svg>
